<?xml version="1.0" standalone="no"?>
<!DOCTYPE svg PUBLIC "-//W3C//DTD SVG 20010904//EN"
 "http://www.w3.org/TR/2001/REC-SVG-20010904/DTD/svg10.dtd">
<svg version="1.0" xmlns="http://www.w3.org/2000/svg"
 width="260.000000pt" height="280.000000pt" viewBox="0 0 260.000000 280.000000"
 preserveAspectRatio="xMidYMid meet">

<g transform="translate(0.000000,280.000000) scale(0.100000,-0.100000)"
fill="#000000" stroke="none">
<path d="M1288 2545 c-15 -25 -32 -45 -36 -45 -5 0 -22 18 -37 40 -26 37 -31
40 -76 40 l-49 0 0 -35 c0 -24 5 -35 15 -35 11 0 15 -12 15 -44 0 -24 3 -64 6
-90 6 -43 9 -46 35 -46 28 0 29 2 29 45 0 25 3 45 8 45 4 0 18 -16 31 -35 13
-19 27 -35 32 -35 4 0 18 18 30 40 26 47 39 43 39 -11 0 -39 1 -40 31 -37 l32
3 -2 100 c-3 135 -6 145 -45 145 -26 0 -35 -7 -58 -45z"/>
<path d="M1470 2560 c0 -10 -3 -25 -6 -34 -4 -11 -1 -16 10 -16 12 0 15 -6 11
-22 -31 -143 -28 -172 20 -166 17 3 22 19 39 116 12 68 16 116 10 121 -5 5
-26 11 -46 14 -32 5 -38 3 -38 -13z"/>
<path d="M1641 2524 c-8 -19 -9 -30 -1 -39 8 -9 2 -34 -20 -90 -32 -80 -31
-88 7 -100 18 -5 25 -1 32 17 5 13 16 41 25 63 l17 40 26 -29 c22 -27 25 -36
20 -83 -5 -50 -4 -55 19 -65 15 -7 28 -8 33 -2 4 5 25 52 46 104 20 52 39 100
42 106 2 7 -10 17 -27 23 -30 10 -32 9 -43 -19 -6 -17 -14 -30 -17 -30 -3 0
-12 15 -20 33 -13 28 -98 97 -120 97 -4 0 -12 -12 -19 -26z"/>
<path d="M800 2476 c-76 -30 -85 -36 -82 -57 4 -36 15 -41 54 -25 19 9 38 12
42 9 3 -4 6 -47 6 -96 0 -81 2 -88 18 -82 9 4 25 9 34 12 9 3 18 14 20 26 4
26 75 53 100 38 20 -12 72 3 66 18 -7 21 -152 191 -162 191 -6 -1 -49 -16 -96
-34z m124 -91 c26 -33 26 -34 7 -45 -40 -21 -51 -13 -51 35 0 25 4 45 9 45 5
0 20 -16 35 -35z"/>
<path d="M562 2334 c-73 -62 -90 -120 -52 -182 25 -40 81 -66 126 -58 17 4 55
25 83 47 56 45 56 45 2 109 l-30 35 -22 -22 c-21 -21 -21 -23 -6 -47 16 -24
16 -26 -5 -41 -47 -32 -98 -9 -98 45 0 22 11 37 49 68 47 37 49 40 35 61 -20
29 -32 27 -82 -15z"/>
<path d="M1943 2330 c-44 -27 -67 -73 -60 -124 5 -34 15 -49 59 -88 29 -26 58
-48 64 -48 6 0 25 21 44 46 l33 46 -21 21 -22 21 -23 -22 c-21 -20 -25 -21
-45 -6 -15 10 -22 25 -22 48 0 67 52 75 125 20 l48 -37 18 24 c19 24 19 24
-14 53 -79 70 -126 82 -184 46z"/>
<path d="M1201 2250 c-269 -37 -487 -193 -606 -435 -65 -131 -80 -195 -79
-350 0 -151 15 -217 75 -342 186 -389 656 -553 1049 -367 208 98 363 285 426
515 28 99 25 300 -4 403 -94 330 -375 556 -717 579 -44 3 -109 1 -144 -3z
m264 -115 c18 -18 25 -35 25 -65 l0 -40 25 16 c13 9 51 18 84 21 l60 6 71 -72
c62 -63 79 -88 135 -207 145 -306 163 -452 61 -513 -69 -41 -130 -31 -208 37
-41 37 -40 37 -101 -58 -19 -31 -42 -62 -52 -70 -18 -15 -16 -43 16 -210 21
-111 20 -114 -64 -152 -46 -20 -66 -23 -182 -22 -84 1 -146 6 -175 15 l-45 15
-1 132 c0 122 -2 133 -23 155 -12 14 -30 46 -40 72 l-18 47 -6 -46 c-8 -55
-36 -112 -71 -145 -39 -36 -119 -41 -166 -9 -81 55 -108 157 -117 438 -6 194
-5 197 21 275 15 44 36 88 47 97 29 25 126 45 149 30 16 -9 18 -6 24 29 8 49
37 79 76 79 18 0 30 5 30 13 0 29 50 62 92 62 30 0 48 6 64 22 26 26 85 39
110 25 14 -8 24 -4 45 19 36 39 98 41 134 4z"/>
<path d="M1358 2135 c-15 -8 -29 -24 -33 -35 -7 -22 -20 -26 -30 -10 -18 29
-118 -3 -130 -41 -5 -15 -10 -18 -18 -10 -30 30 -117 -10 -117 -53 0 -12 -7
-14 -29 -10 -46 10 -71 -23 -71 -91 l0 -56 -22 21 c-18 17 -32 21 -68 18 -49
-5 -104 -27 -106 -43 0 -6 -3 -17 -6 -25 -52 -139 -51 -133 -44 -306 14 -341
59 -455 182 -458 83 -2 140 74 151 203 3 40 9 68 13 64 4 -4 17 -40 29 -80 14
-49 29 -78 47 -92 l26 -20 -3 -133 -4 -133 55 -13 c129 -31 319 -13 380 36
l22 18 -21 120 c-25 141 -26 177 -6 194 8 7 40 50 71 97 l57 85 31 -35 c63
-73 137 -95 197 -60 34 20 69 86 69 129 0 70 -48 206 -141 399 -44 92 -64 121
-122 179 -68 67 -70 68 -111 63 -70 -10 -94 -24 -110 -62 -14 -33 -45 -52 -32
-19 3 9 9 39 12 67 5 42 3 56 -12 75 -24 28 -71 36 -106 17z m83 -15 c14 -8
19 -21 19 -55 0 -55 -27 -173 -46 -202 -31 -49 -85 -13 -87 59 -4 113 3 168
23 188 22 22 60 26 91 10z m-149 -47 c11 -13 17 -51 21 -134 5 -104 4 -118
-12 -133 -49 -45 -87 -6 -112 117 -22 110 -20 131 19 152 36 19 66 19 84 -2z
m323 -33 c3 -5 -1 -10 -10 -10 -9 0 -13 5 -10 10 3 6 8 10 10 10 2 0 7 -4 10
-10z m-473 -17 c16 -18 51 -159 50 -201 0 -49 -43 -67 -80 -34 -18 15 -72 158
-72 190 0 20 47 62 68 62 10 0 26 -8 34 -17z m438 7 c0 -5 -4 -10 -10 -10 -5
0 -10 5 -10 10 0 6 5 10 10 10 6 0 10 -4 10 -10z m138 -57 c43 -40 63 -73 121
-193 38 -80 81 -182 96 -227 27 -82 27 -83 8 -115 -24 -41 -111 -88 -163 -88
-39 0 -92 32 -77 46 4 5 12 3 16 -4 8 -13 72 -35 79 -27 3 3 -7 23 -22 45 -14
22 -26 50 -26 62 0 13 -16 48 -35 78 l-35 54 32 17 c29 15 79 59 67 59 -3 0
-22 -9 -44 -20 -22 -11 -48 -20 -60 -19 -12 0 0 9 31 23 28 13 55 30 59 37 5
7 -7 3 -27 -9 -40 -25 -83 -29 -91 -9 -3 8 -2 27 1 43 8 33 48 47 58 20 9 -24
-15 -48 -40 -40 -17 5 -19 4 -9 -7 10 -10 18 -10 38 -1 29 13 34 52 10 72 -20
17 -62 4 -70 -21 -6 -19 -9 -20 -22 -6 -12 11 -12 19 -4 35 13 25 5 49 -19 62
-27 14 -50 1 -57 -31 -8 -43 -23 -35 -23 14 0 48 24 90 66 118 16 10 23 19 15
19 -7 0 -31 -17 -52 -38 -31 -31 -39 -48 -45 -91 -6 -48 -8 -52 -32 -49 -19 2
-28 11 -33 32 -8 28 6 64 19 51 3 -3 11 0 18 6 9 7 10 19 3 42 -11 40 -12 37
5 37 8 0 22 10 30 21 15 22 87 47 137 48 17 1 42 -14 77 -46z m-687 -35 c7
-13 20 -50 30 -83 17 -53 17 -62 4 -82 -27 -40 -65 -26 -104 37 -23 39 -27 86
-9 125 15 33 62 35 79 3z m432 -38 c3 -11 1 -20 -4 -20 -5 0 -9 9 -9 20 0 11
2 20 4 20 2 0 6 -9 9 -20z m-628 -50 c-3 -5 -10 -10 -16 -10 -5 0 -9 5 -9 10
0 6 7 10 16 10 8 0 12 -4 9 -10z m-35 -10 c0 -5 -4 -10 -10 -10 -5 0 -10 5
-10 10 0 6 5 10 10 10 6 0 10 -4 10 -10z m111 -12 c14 -7 35 -26 47 -44 12
-18 36 -37 55 -43 29 -10 36 -18 41 -47 12 -63 34 -67 173 -32 119 30 122 30
147 12 14 -11 24 -23 22 -29 -16 -49 -15 -57 3 -25 l20 35 -6 -48 c-6 -47 9
-97 29 -97 5 0 2 10 -6 22 -27 38 -16 108 16 108 9 0 38 -54 38 -70 0 -6 -6
-8 -12 -5 -7 4 -5 0 5 -8 21 -17 22 -27 2 -27 -20 0 -47 43 -39 64 3 9 10 13
15 10 5 -3 6 3 2 12 -6 15 -7 15 -20 -2 -18 -24 -9 -63 20 -87 12 -10 17 -16
11 -13 -7 3 -17 -1 -24 -10 -7 -8 -19 -13 -27 -10 -7 3 -13 0 -13 -6 0 -19
-11 -2 -25 39 l-14 38 -1 -33 c0 -28 -5 -35 -35 -48 -52 -21 -80 -18 -104 14
l-21 27 6 -28 c9 -38 -22 -105 -57 -123 -45 -23 -93 -18 -131 14 -33 27 -33
27 -17 2 10 -16 13 -33 9 -45 -4 -11 -10 -50 -14 -86 -8 -72 -25 -98 -79 -118
-43 -16 -118 -13 -157 7 -31 15 -36 24 -48 77 -7 33 -14 128 -15 210 -1 83 -6
153 -10 156 -10 7 6 99 28 161 15 41 23 49 59 62 39 14 68 22 92 25 5 0 21 -4
35 -11z m678 -12 c15 -18 3 -46 -20 -46 -22 0 -34 22 -25 45 7 19 30 19 45 1z
m-170 -41 c6 -3 9 -11 6 -16 -9 -13 -49 -11 -65 4 -12 10 -12 9 -1 -5 16 -22
49 -23 70 -4 11 10 32 12 68 9 29 -3 51 -9 48 -13 -2 -4 7 -5 22 -2 16 3 24 1
20 -5 -4 -6 1 -13 11 -15 11 -3 28 -29 42 -64 12 -33 41 -87 63 -122 l40 -63
-32 -42 c-17 -23 -54 -73 -80 -112 -90 -128 -90 -128 -162 -132 -78 -5 -121
17 -139 71 -25 76 41 182 145 231 l55 26 -14 28 c-8 15 -20 49 -27 75 -6 26
-15 43 -19 36 -11 -17 -85 16 -115 52 -14 16 -25 40 -25 54 0 22 3 23 39 20
22 -2 45 -7 50 -11z m-197 -99 c-96 -23 -125 -27 -135 -17 -9 10 -9 11 3 7 8
-3 65 7 125 23 61 15 115 25 120 22 6 -3 -45 -19 -113 -35z m168 -206 c12 -8
11 -10 -5 -8 -30 3 -114 -13 -121 -23 -3 -5 -10 -9 -17 -9 -25 0 12 22 59 35
61 17 66 17 84 5z m-100 -87 c-17 -26 -30 -56 -29 -67 0 -16 3 -14 11 9 14 39
45 83 67 95 15 8 14 2 -6 -37 -12 -26 -23 -63 -23 -82 0 -39 32 -101 52 -102
7 0 -8 -6 -33 -13 -25 -6 -59 -22 -76 -34 -45 -32 -103 -38 -132 -15 -23 19
-96 213 -80 213 4 0 16 -25 26 -56 9 -31 19 -52 20 -47 2 5 -3 29 -10 54 -14
45 -14 46 9 41 36 -7 70 5 107 37 29 26 78 47 114 50 7 1 0 -20 -17 -46z m670
10 c-3 -21 -13 -48 -21 -61 -15 -24 -67 -52 -96 -52 -10 1 0 7 21 15 21 7 46
21 55 31 15 16 15 16 -4 10 -18 -6 -17 -5 3 17 20 22 28 39 31 70 1 4 5 7 10
7 4 0 5 -17 1 -37z m-26 -4 c-10 -17 -106 -59 -134 -58 -16 0 -7 5 23 13 27 7
61 23 75 34 30 23 47 28 36 11z m-148 -74 c20 -14 33 -25 29 -25 -9 0 -75 40
-75 46 0 8 10 4 46 -21z m-237 -315 c13 -72 16 -109 9 -117 -6 -7 -40 -22 -75
-33 -74 -23 -205 -26 -288 -6 l-50 11 -3 126 -3 126 45 5 c24 3 59 16 78 29
28 21 48 25 143 29 l110 5 7 -35 c4 -19 16 -82 27 -140z m-574 121 c-24 -47
-62 -71 -109 -70 l-41 2 49 6 c36 5 55 15 73 35 27 32 25 43 -5 27 -12 -6 -51
-10 -89 -9 l-68 1 75 6 c41 3 84 11 95 18 31 19 37 15 20 -16z m-187 -13 c7
-10 19 -18 27 -18 8 0 17 -4 20 -10 4 -6 -1 -7 -11 -3 -12 5 -15 3 -9 -6 6
-10 3 -11 -13 -2 -22 11 -52 49 -52 64 0 11 22 -3 38 -25z"/>
<path d="M1344 1925 c-3 -14 -4 -32 0 -40 7 -20 35 -30 47 -18 6 6 2 9 -13 9
-19 -1 -23 4 -23 29 0 23 6 31 25 36 l25 7 -27 1 c-21 1 -29 -5 -34 -24z"/>
<path d="M1232 1898 c-18 -18 -14 -56 8 -78 16 -16 25 -18 40 -10 11 6 20 18
20 28 -1 16 -1 16 -11 0 -14 -24 -46 -23 -54 2 -9 30 3 58 28 63 20 4 21 4 2
6 -12 0 -26 -4 -33 -11z"/>
<path d="M1105 1874 c-9 -9 -14 -23 -11 -31 3 -8 6 -19 6 -24 0 -5 11 -16 25
-25 20 -13 28 -14 40 -4 8 7 15 17 15 22 0 6 -7 5 -15 -2 -18 -15 -40 -8 -54
19 -9 16 -7 24 11 41 12 11 17 20 11 20 -7 0 -19 -7 -28 -16z"/>
<path d="M1598 1925 c-10 -22 -9 -29 10 -47 18 -19 25 -20 47 -10 16 8 25 20
25 35 0 50 -62 66 -82 22z m61 6 c17 -11 8 -39 -15 -48 -8 -3 -23 1 -31 10
-13 13 -14 19 -3 31 14 18 28 20 49 7z"/>
<path d="M1718 1879 c-21 -12 -24 -49 -6 -67 39 -39 100 17 63 58 -20 22 -32
24 -57 9z m46 -15 c19 -19 20 -26 4 -42 -19 -19 -37 -14 -44 12 -10 43 11 59
40 30z"/>
<path d="M987 1843 c-13 -12 -7 -40 12 -57 24 -22 55 -17 59 9 4 20 4 20 -12
0 -12 -16 -18 -18 -33 -9 -23 14 -29 44 -11 55 7 5 8 9 2 9 -6 0 -14 -3 -17
-7z"/>
<path d="M817 1815 c-61 -17 -76 -30 -22 -18 22 4 59 8 81 8 35 0 39 1 25 12
-19 15 -23 15 -84 -2z"/>
<path d="M808 1764 c0 -11 -2 -24 -2 -31 -1 -6 -5 -15 -9 -19 -4 -4 -7 -20 -7
-36 0 -21 -6 -31 -25 -38 -50 -19 -22 -89 30 -76 20 5 25 3 25 -13 0 -25 24
-43 52 -39 19 2 23 9 23 41 0 28 4 37 17 37 9 0 26 12 37 26 12 15 21 23 21
19 0 -4 7 -2 15 5 13 11 15 8 15 -16 -1 -46 -36 -112 -72 -134 -28 -17 -34
-18 -36 -5 -4 17 -32 21 -32 4 0 -5 6 -7 13 -4 6 4 1 -3 -12 -14 l-23 -21 33
6 c19 4 51 17 72 30 20 13 37 21 37 17 1 -5 7 6 15 24 27 64 111 82 166 36 18
-15 30 -21 27 -13 -14 42 -120 72 -151 41 -20 -20 -27 -12 -27 33 0 79 -64
145 -149 154 -45 4 -51 2 -53 -14z m101 -9 c48 -25 108 -107 66 -91 -8 3 -15
1 -15 -5 0 -6 -10 -3 -22 5 -12 9 -31 13 -45 10 -18 -5 -23 -2 -23 13 0 24
-19 43 -42 43 -10 0 -18 4 -18 10 0 5 8 6 18 3 15 -6 15 -5 3 10 -12 15 -10
17 18 17 18 0 45 -7 60 -15z m-55 -67 c15 -24 -10 -51 -35 -37 -22 11 -24 30
-7 47 15 15 28 11 42 -10z m75 -42 c9 -11 8 -18 -4 -30 -9 -9 -20 -16 -24 -16
-16 0 -31 28 -25 44 8 20 37 21 53 2z m-64 -20 c0 -13 -2 -22 -4 -20 -2 2 -10
-1 -18 -7 -10 -9 -13 -8 -13 4 0 9 -4 18 -9 21 -5 4 -7 -2 -4 -12 6 -23 -19
-44 -41 -36 -20 8 -21 43 -1 50 9 4 29 7 45 8 16 1 32 5 36 9 4 4 8 7 8 7 1 0
1 -11 1 -24z m18 -44 c18 -4 1 -47 -19 -50 -16 -2 -24 4 -32 26 -9 27 -8 29
17 27 14 -1 30 -3 34 -3z"/>
<path d="M1300 1639 c0 -6 -7 -8 -16 -5 -8 3 -12 2 -9 -3 9 -15 44 -9 38 6 -6
16 -13 17 -13 2z"/>
<path d="M1247 1627 c-3 -8 1 -14 8 -14 7 0 11 6 8 14 -3 7 -6 13 -8 13 -2 0
-5 -6 -8 -13z"/>
<path d="M713 1590 c1 -11 5 -20 9 -20 11 0 10 28 -1 35 -6 3 -9 -4 -8 -15z"/>
<path d="M1055 1566 c-59 -26 -72 -101 -26 -147 49 -49 129 -30 150 34 26 78
-49 146 -124 113z m69 -10 c21 -9 37 -24 43 -42 11 -34 3 -76 -16 -82 -10 -3
-11 0 -2 16 16 31 13 53 -11 79 -26 28 -61 30 -88 3 -29 -29 -26 -74 6 -99 18
-15 22 -21 11 -21 -21 0 -46 26 -54 58 -8 32 13 72 47 89 31 16 24 16 64 -1z
m6 -36 c23 -23 26 -50 8 -68 -7 -7 -13 -18 -13 -24 0 -6 -7 -13 -15 -15 -13
-4 -13 -3 0 6 12 9 10 11 -12 11 -51 0 -76 54 -41 92 21 24 48 23 73 -2z"/>
<path d="M1059 1513 c-12 -16 -12 -17 1 -7 8 7 24 14 35 17 19 4 19 5 -1 6
-12 0 -28 -7 -35 -16z"/>
<path d="M1095 1460 c-16 -7 -17 -9 -3 -9 9 -1 20 4 23 9 7 11 7 11 -20 0z"/>
<path d="M1282 1558 c-21 -21 -8 -68 19 -68 10 0 39 30 39 40 0 10 -29 40 -39
40 -4 0 -12 -5 -19 -12z"/>
<path d="M920 1458 c-25 -13 -48 -18 -80 -15 l-45 4 35 -14 c19 -8 51 -13 72
-11 24 2 39 -1 43 -10 5 -13 -12 -216 -20 -239 -7 -21 20 -15 41 10 14 15 24
48 32 103 10 75 9 85 -9 120 -10 21 -19 46 -19 56 0 22 -5 21 -50 -4z"/>
<path d="M798 1463 c7 -3 16 -2 19 1 4 3 -2 6 -13 5 -11 0 -14 -3 -6 -6z"/>
<path d="M1693 1450 c-7 -10 -23 -20 -35 -23 -21 -4 -21 -4 -2 -6 20 -1 62 34
53 44 -3 2 -10 -4 -16 -15z"/>
<path d="M1560 1280 c-15 -28 -68 -60 -100 -60 -14 0 -40 9 -57 20 -18 11 -33
16 -33 11 0 -12 63 -41 90 -41 34 0 87 29 105 57 9 13 14 27 12 30 -3 2 -11
-5 -17 -17z"/>
<path d="M1291 1127 c-19 -12 -55 -27 -80 -33 -25 -7 -38 -13 -27 -13 33 -2
93 21 122 45 36 29 30 29 -15 1z"/>
<path d="M538 1922 c-54 -86 -75 -132 -103 -229 -88 -304 8 -652 237 -858 88
-79 116 -92 44 -20 -120 120 -186 225 -235 371 -80 239 -59 486 59 713 22 41
38 76 37 77 -1 2 -19 -23 -39 -54z"/>
<path d="M389 1875 c-16 -35 -41 -104 -56 -152 -24 -81 -27 -102 -27 -258 0
-143 3 -182 22 -247 25 -93 77 -207 129 -285 48 -73 166 -198 230 -242 36 -26
25 -13 -43 51 -227 216 -337 484 -321 781 8 138 26 222 71 332 40 100 38 113
-5 20z"/>
<path d="M2202 1868 c96 -236 102 -503 19 -746 -43 -123 -112 -233 -211 -331
-47 -47 -69 -74 -50 -61 64 45 164 157 212 236 54 90 102 225 119 334 18 117
6 316 -25 421 -26 89 -71 199 -80 199 -3 0 4 -24 16 -52z"/>
<path d="M2090 1841 c63 -147 88 -312 71 -465 -22 -194 -104 -371 -244 -531
l-62 -70 54 45 c282 236 370 667 205 1005 -47 97 -63 107 -24 16z"/>
<path d="M1637 684 c-79 -40 -87 -47 -81 -67 8 -28 24 -48 33 -42 4 2 21 -23
36 -55 16 -33 32 -60 37 -60 21 0 168 82 168 93 0 21 -30 56 -43 51 -19 -7
-43 46 -26 57 15 9 -7 69 -25 68 -6 0 -51 -20 -99 -45z m112 8 c8 -16 2 -22
-45 -45 -30 -15 -54 -31 -54 -35 0 -20 15 -20 51 -2 46 24 49 24 49 5 0 -9
-16 -23 -35 -32 -19 -9 -35 -23 -35 -30 0 -19 14 -16 70 12 48 25 49 25 60 5
9 -18 3 -23 -60 -55 -38 -19 -74 -35 -80 -35 -6 0 -22 25 -36 55 -14 30 -32
55 -39 55 -13 0 -31 37 -23 45 6 6 152 74 160 74 4 1 12 -7 17 -17z"/>
<path d="M871 688 c-6 -17 -10 -32 -9 -33 2 -2 21 -12 43 -23 l40 -20 -43 -13
c-48 -14 -58 -23 -67 -60 -6 -25 -2 -28 76 -60 46 -19 86 -35 89 -37 7 -3 30
42 30 59 0 5 -11 15 -25 21 -34 16 -31 23 15 37 28 8 45 21 56 42 8 17 14 33
11 35 -6 6 -189 84 -198 84 -4 0 -12 -14 -18 -32z m109 -19 c41 -17 79 -35 83
-39 19 -17 -15 -50 -68 -66 -30 -10 -55 -21 -55 -24 0 -4 18 -14 41 -23 37
-14 39 -18 29 -37 -6 -12 -14 -20 -18 -18 -4 2 -40 16 -79 32 l-72 29 14 26
c10 20 29 32 72 45 l58 19 -52 23 c-57 25 -56 24 -47 48 8 21 7 21 94 -15z"/>
<path d="M1483 632 c-24 -2 -33 -8 -33 -22 0 -17 -4 -18 -29 -9 -16 6 -46 9
-68 7 -35 -3 -38 -6 -41 -36 -2 -22 2 -34 12 -38 9 -3 18 -25 21 -52 11 -79
13 -82 52 -82 l36 0 -6 50 c-8 65 16 69 43 6 17 -41 20 -43 50 -37 17 3 31 9
32 14 2 20 -25 198 -31 200 -3 1 -21 1 -38 -1z m32 -34 c12 -55 24 -152 19
-159 -11 -19 -42 -8 -48 16 -8 31 -40 65 -62 65 -14 0 -16 -8 -12 -50 5 -47
-2 -60 -31 -60 -5 0 -13 29 -19 65 -6 36 -18 72 -26 81 -9 8 -16 19 -16 24 0
24 103 16 135 -10 13 -10 15 -8 15 12 0 43 36 55 45 16z"/>
<path d="M1124 586 c-46 -46 -47 -99 -5 -145 62 -66 181 -25 181 63 0 72 -42
116 -111 116 -22 0 -41 -10 -65 -34z m140 -18 c24 -26 27 -37 22 -67 -14 -90
-129 -112 -171 -31 -20 39 -19 62 6 94 43 54 95 56 143 4z"/>
<path d="M1166 544 c-30 -30 -13 -74 29 -74 44 0 63 60 26 80 -27 14 -37 13
-55 -6z m58 -20 c7 -19 -10 -44 -30 -44 -16 0 -33 30 -27 48 7 18 50 15 57 -4z"/>
</g>
</svg>
